<svg id="Layer_1" data-name="Layer 1" xmlns="http://www.w3.org/2000/svg" viewBox="0 0 1984.96 800"><defs><style>.cls-1{fill:#fff;}.cls-2{fill:#231f20;}</style></defs><title>logo</title><polygon class="cls-1" points="1452.43 800 0 800 0 0 1984.96 0 1452.43 800"/><path class="cls-2" d="M743.32,636.32c-.47-1.62-1.11-3.59-1.93-5.89s-1.93-4.83-3.14-7.74c-2.43-5.8-5.75-12.69-10-20.48A219.23,219.23,0,0,0,712,577.26a223.32,223.32,0,0,0-23.45-26.17c-4.45-4.32-9.15-8.5-13.85-12.71L673,536.78l-2-1.7c-1.32-1.16-2.68-2.18-4-3.29q-4.09-3.19-8.42-6.11a166.75,166.75,0,0,0-38.11-19.11,193.91,193.91,0,0,0-43.63-9.72l-11.36-1c-3.77-.1-7.52-.11-11.24-.08-1.77.06-3.54.21-5.3.43a103.69,103.69,0,0,0-10.8.85,118.43,118.43,0,0,0-29,7.74,202.54,202.54,0,0,0-24.17,11.94c-7.19,4.06-14.71,8.57-19.58,11.13L460.76,530c-1.51.72-3,1.43-4.65,2-3.23,1.25-6.33,2.55-9.65,3.58-13,4.35-26,7.64-38.16,11.88l-8.94,3.25-4.35,1.7-4.07,1.66a158,158,0,0,1-15.05,5.42c-4.93,1.52-9.71,2.6-14.32,3.56a118.92,118.92,0,0,1-13.16,1.75,96.47,96.47,0,0,1-21.67-.69A84.34,84.34,0,0,1,313,560.73c-3.12-1.1-4.81-1.69-5-1.3s1.11,1.76,3.67,4.39a125.4,125.4,0,0,0,33.5,23.67,127.67,127.67,0,0,0,50.69,12.86l4.9.13,4.79,0c3.22,0,6.5-.06,9.83-.31,13.35-.7,27.44-3.65,42.57-7.57,7.56-1.94,15.51-4.24,23.92-7.19,9.4-3.72,16-7,23.36-10.38s14.1-6.57,20.66-9.3a109.57,109.57,0,0,1,19.09-6.26,76.45,76.45,0,0,1,19.21-1.55c1.65.12,3.29.14,5,.31l5,.61c1.67.16,3.39.6,5.08.86a47.65,47.65,0,0,1,5,1,115.43,115.43,0,0,1,22.93,8c-2.56.46-5.11,1-7.62,1.64s-4.81,1.27-7.21,2-4.9,1.46-7.08,2.22l-12.1,4.63c-8.12,3.18-16.46,6.51-24.76,10.06L523.6,600.5l-11.75,5.35-5.94,2.75-6,2.38c-4,1.6-8,3.21-12,4.89s-8.08,3.54-11.68,4.68l-11.11,4L454,627.81a200.33,200.33,0,0,1-43.7,6.59,193.81,193.81,0,0,1-21.27-.32,104.8,104.8,0,0,1-18.9-2.75,187.5,187.5,0,0,1-35.2-12.67,223.46,223.46,0,0,1-28.31-16l-5.86-4-5.31-4c-3.44-2.5-6.37-5.12-9.13-7.36-5.36-4.66-9.47-8.47-12.15-11.19s-4.27-4-4.54-3.71.7,2.23,2.71,5.78,5.18,8.62,9.46,15c2.22,3.1,4.57,6.76,7.42,10.41l4.4,5.84,4.94,6.13a311,311,0,0,0,25,27,241.52,241.52,0,0,0,34.78,27.82,151.32,151.32,0,0,0,22.58,11.85c3.8,1.51,7.6,3.18,11.64,4.53s8.08,2.89,12.31,4A201,201,0,0,0,459.3,699l14.57-.3c4.86-.45,9.76-1,14.72-1.6,5.12-.47,9.53-1.49,14.3-2.32s9.44-1.79,14.2-2.76l7.13-1.46,7-1.89,13.77-3.86,25-7.4c8.07-2.28,15.95-4.14,23.63-6.33L605,667.86c1.71-.45,3.06-.69,4.59-1.07s3-.79,4.37-.95l4.21-.75c1.4-.29,2.69-.29,4-.51,2.69-.5,5.1-.43,7.58-.74a117.52,117.52,0,0,1,13,.23,63.13,63.13,0,0,1,21.67,5.57c6.95,3.23,14.24,8.58,20,13.72a111.62,111.62,0,0,1,14.64,15.55c1,1.26,1.83,2.51,2.77,3.72.48.61.86,1.21,1.3,1.8a21.9,21.9,0,0,0,1.5,1.73c2.2,2.21,4.37,4.34,6.42,6.31,1.27-1.55,2.54-3.1,3.79-4.68,6.34-9.68,12.45-19.54,17.33-30.36,0-.65-.09-1.34-.13-2l.44.79c.09-.93.21-1.85.31-2.77q0-2.86,0-5.72l-.58-2.53-1.08-4.66c-.4-1.67-.94-3.36-1.46-5.21-.88-3.22-2-6.73-3.34-10.44a132.43,132.43,0,0,0-6.08-15.77c-1-2.12-2.05-4.27-3.2-6.43a218.56,218.56,0,0,0-14.38-25.17,276.25,276.25,0,0,0-16.75-22.76q9.07,7.29,16.6,14.65a236.94,236.94,0,0,1,18.23,20.08c5,6.42,9.23,12.2,12.52,17.09l4.41,6.52c1.22,1.94,2.31,3.56,3.23,4.83,1.85,2.55,3,3.83,3.26,3.62S744.26,639.57,743.32,636.32Z"/><path class="cls-2" d="M473.06,449.44l-5.7,6.48q-2.21,2.51-4.33,5.09c-3.07,3.18-5.89,6.62-9,9.65-6,6.37-12.35,12.22-18.55,17.84-1.57,1.37-3.12,2.75-4.65,4.16l-4.66,3.93c-3,2.71-6.17,5-9.15,7.51-3,2.34-6,4.63-8.88,6.79s-5.72,4.25-8.49,6-5.4,3.7-8,5.25l-3.74,2.35-3.57,2.06c-2.32,1.36-4.5,2.54-6.54,3.55s-3.92,2-5.64,2.72l-4.6,2-3.42,1.3c-1.87.74-2.87,1.22-2.87,1.67s1,.86,2.93,1.46c1,.3,2.17.66,3.61,1l5,1.06c1.9.46,4,.71,6.32,1.09s4.86.68,7.6.93,5.69.49,8.82.59,6.46.11,10,0,7.15-.47,11-.8,7.79-1.1,11.91-1.91A130.81,130.81,0,0,0,441.06,538c2.17-.69,4.36-1.4,6.57-2.21S452,534,454.3,533a126.23,126.23,0,0,0,27.15-16.16A139.08,139.08,0,0,0,494.7,505.2q3.17-3.37,6.31-6.91l2.75-3.11,2.27-2.64c12.12-14.14,24.05-25.49,36.08-32.66A66.27,66.27,0,0,1,560,452.23a50.51,50.51,0,0,1,8.7-1.38l2.08,0a10.44,10.44,0,0,1,2.17.08l4.55.58c1.49.21,3,.31,4.43.6l4.17,1a58.86,58.86,0,0,1,7.8,2.1c4.82,1.77,9.21,3.07,12.58,4.77,6.89,3.07,10.71,5,11.11,4.3.14-.24-.12-.85-.7-1.8-2.77-2.37-5.6-4.76-8.53-7.19-5.75-4.74-11.84-9.46-18.19-14a162.12,162.12,0,0,0-20-12.38A91.15,91.15,0,0,0,549.58,421a65.25,65.25,0,0,0-19.78-1.73,84.14,84.14,0,0,0-18.54,3.48c-.83.24-1.64.5-2.45.76-3.8,1.74-8.19,3.68-12.85,5.54A133.65,133.65,0,0,0,473.06,449.44Z"/><path class="cls-2" d="M525.74,415.82c-1.64.73-3.37,1.5-5.3,2.31C522.36,417.32,524.1,416.55,525.74,415.82Z"/><path class="cls-2" d="M551.9,339c-11,9.64-13.52,13.76-22.08,24.37-9.35,11.59-10,10.86-20.15,21.38-2.45,2.54-9,8.43-16.49,15.56-4.14,4-16.88,16-21.5,19.07-20.94,13.89-27.61,15.12-38.11,19.45,7.72-.46,11.21.93,18.93.46a145.26,145.26,0,0,0,31.71-6c4-1.27,8-2.74,11.75-4.25,4.66-1.86,9.06-3.8,12.85-5.54,5.29-2.43,9.45-4.47,11.62-5.39,1.92-.81,3.66-1.58,5.3-2.31l3.15-1.41c8.42-3.74,14.85-6.05,30.75-5.35,21.14.93,32.42,7.19,49.69,21.57-8.52-39.5-12.38-65.39.94-108.11.64-2,5.19-12.87,7.37-17.18a115.06,115.06,0,0,1,5.31-11.71c.5-1,1-1.88,1.35-2.6C599.3,304.89,574.16,319.48,551.9,339Z"/><path class="cls-2" d="M1059.37,462.53l-1.92-1-8.28,0c-15.17.34-34-9.67-37-11-29-13-27.06-15-67.5-41.64-11.21-7.39-22.55-14.86-34-21.79a48.94,48.94,0,0,0,6.39-1.27c2.08-.61,4-1.25,5.89-1.9l2.67-1c.86-.38,1.69-.81,2.49-1.2,1.6-.78,3.08-1.52,4.45-2.25a58.41,58.41,0,0,0,6.78-4.09c1.81-1.19,3.17-2.13,4.08-2.81s1.38-1.17,1.35-1.62-.55-.87-1.52-1.46L939,367.17a57.27,57.27,0,0,1-6.25-3.91,92.71,92.71,0,0,1-7.61-5.72l-4.08-3.41c-1.39-1.1-2.76-2.56-4.17-3.8-2.81-2.4-5.71-5.43-8.72-7.95a128,128,0,0,0-9.85-8.29c-1.77-1.31-3.61-2.59-5.55-3.92-1-.64-1.95-1.26-2.94-1.87l-1.51-.88-2.06-1.12a54.88,54.88,0,0,0-9.19-4,52.35,52.35,0,0,0-9.11-1.94c12.86-15.54,21.12-27.66,26-37.87,13.56-28.65,17.18-62.63,17.32-64.07l1-9.29-4.75,7.37c-.18.28-18.15,28.17-21.36,32.2-3.51,4.41-7.87,9.33-12.1,14.09-1.9,2.14-3.74,4.21-5.42,6.15-6.24,7.19-14.38,13.59-22.25,19.78-3.35,2.64-6.51,5.13-9.48,7.63-8.18,6.91-30.6,19.94-48,29.68,10.13-8.43,20.88-17.59,24.35-21.28,16.4-17.46,29.21-30.71,40.52-42.4l4.94-5.12C880,235.21,894.15,207.36,902,172.14c5.91-26.56,2.35-74.93,2.2-77l-.57-7.64L900.26,94c-.17.33-17.54,33.75-40.78,57.29l-2.32,2.35C842.21,168.84,839.1,172,813.75,186.4c-26.82,15.23-33.65,18.57-60.9,29.71-4.49,1.84-9.07,3.51-13.92,5.29-7.76,2.84-15.78,5.77-24.87,9.86l-3.66,1.64c-9.66,4.32-24.25,10.86-39.67,18.66a35.69,35.69,0,0,0-3.63,1.85c-12.16,7-28,17-36.76,27.06,0,0-1.85,2.64-1.89,2.7-2.24,3.24-2.56,5.1-4.44,8.66a3.06,3.06,0,0,1-.41,1.36,2.77,2.77,0,0,1-.74,1.86,26.94,26.94,0,0,1-.88,3.32l-1.65,4.94-1.94,6.83c-.75,2.54-1.26,5.5-2,8.62-.4,1.55-.56,3.27-.87,5s-.62,3.5-.82,5.39a198,198,0,0,0-1.27,25.65q.1,3.59.21,7.34c.15,2.49.39,5,.58,7.62s.4,5.21.61,7.88a33.81,33.81,0,0,0,.48,4l.61,4,1.23,8.21,1.94,8.14,1,4.13,1.34,4,1.33,4a28.67,28.67,0,0,0,1.46,4l3.42,7.63,4.11,7.09c1.63,2.09,3.13,4.34,4.8,6.37l2.67,2.85,1.32,1.45,1.7,1.64.08.08c9.07,8.76,18.31,18,28,27.18q7.17,7,14.27,13.77l14,13.62c2.29,2.19,4.61,4.71,6.88,7.08s4.54,4.71,6.69,7.35l6.42,7.63,5.82,7.88,2.83,3.89,2.57,3.91,5,7.71c3.28,5,6.23,10.23,9.06,15.3a210.22,210.22,0,0,1,13.72,30.3,148.14,148.14,0,0,1,7.06,27.76,107.74,107.74,0,0,1,1.21,21.94c0,1.35-.15,2.62-.29,3.83,8.89-3.61,23.37-11.76,28.46-27.7,2.72-8.5,11.92-24.42,18.11-28,10.56-6.08,26-8.91,48.46-8.91,15.33,0,31.93,1.32,48,2.6,15.49,1.23,30.11,2.4,43.15,2.4a116.24,116.24,0,0,0,23.29-1.92c5.63-1.17,22.18-7.71,25.68-18.41a13.19,13.19,0,0,0-.4-9.33c8.84-.26,18.67-10.33,26.59-17.65,1.14-1.05,4.29-4.59,4.29-4.59s4.06-4,11.06-13.94c9.84-14,13.78-20.53,17.46-33.06C1062,477.71,1062.16,466.08,1059.37,462.53ZM781.14,316.15c.44-.79.85-1.6,1.23-2.39.58-1.22,1.2-2.4,1.68-3.6a69.07,69.07,0,0,0,2.44-7.11,60.46,60.46,0,0,0,1.56-6.73l.55-3.17.32-3.07a52.2,52.2,0,0,0,.36-5.65c.05-1.78.08-3.43,0-5s-.12-3-.28-4.29-.34-2.49-.49-3.56a27.29,27.29,0,0,0-1.15-4.8c-.38-1.08-.72-1.62-1.09-1.62s-.74.55-1.18,1.56-.85,2.48-1.56,4.3-1.43,4-2.48,6.42c-.47,1.22-1.07,2.47-1.71,3.78l-.94,2-1.1,2-1.13,2.08-1.28,2.05a48.56,48.56,0,0,1-2.77,4.1c-.91,1.43-2.09,2.58-3.09,3.91-.54.62-1.14,1.16-1.7,1.76a14.27,14.27,0,0,1-1.73,1.66,23.76,23.76,0,0,1-7.22,4.63,15.15,15.15,0,0,1-7.23,1.05c-.3,0-.61-.06-.91-.07a4.12,4.12,0,0,1-1.11-.11l-2.93-.52-3.18-.52c-1.14-.17-2.16-.37-3.52-.46s-2.57-.22-3.79-.25l-3.47.14-1.7.11-.87.07-1.14.13a19.23,19.23,0,0,0-2,.36c-.63.13-1.24.27-1.78.44a49.18,49.18,0,0,0-11.94,5.2,51.38,51.38,0,0,0-13.06,11.07,47.16,47.16,0,0,0-2.94,4,35.16,35.16,0,0,0-2.34,4.23c-3.21-2.7-1.61-15.13-1.25-16.36,4.28-15,12.27-23.72,22.74-32.84,28.78-25.07,51-29.66,79.8-43.38,60.23-28.82,89.88-62.54,108.23-137.69,3.49,98.53-37.32,134.11-88.18,185.83A344.76,344.76,0,0,1,781.14,316.15Zm75.22,92.51a93.79,93.79,0,0,0-11.41,23.44,79.51,79.51,0,0,1-19.05-13.54,61,61,0,0,1-4.36-4.44c-.94-1.69-1.75-2.4-2.61-4.15a36.12,36.12,0,0,1-2-5.51,35.68,35.68,0,0,0-1.09-4.24,21.42,21.42,0,0,0-1.32-3.28c-.31-.67-1.89-3-1.8-3.27s2-.1,3.43.06a15.65,15.65,0,0,1,3.34.33c1.38.19,3.7.54,5.6.92a75.17,75.17,0,0,1,7.78,1.59c4.47,1.44,7.47,2.19,11.93,4.48a84.25,84.25,0,0,1,11.58,7.52l0,0S856.38,408.63,856.35,408.67Zm203,66.76a39.26,39.26,0,0,1-3.11,11,37.84,37.84,0,0,1-6.66,9.66,10,10,0,0,1-8.62,2c-2.22-.57-3.87-6.49-4.88-9-1.2-2.92-6-10.42-8-12.32-5.19-5-14.61-9.7-20.52-13.29s-24.09-14-29.85-17.83c-7.64-5.1-28.58-19.59-36.24-24.63-12.53-8.24-37.4-25.28-37.4-25.28l4.35-6.81s26.91,17.3,37.66,24.42c7.67,5.07,29.28,20.65,37,25.71,5.76,3.8,20.22,11.84,26.47,14.26,4.58,1.78,14.51,5.91,19.14,7.46a71.75,71.75,0,0,0,13,3.4c4.71.76,8.88-.13,12-.16,1,0,4.35-.71,5,.14C1060.15,466,1059.63,473.39,1059.4,475.42Z"/><polygon class="cls-2" points="1256.75 800 1226.75 800 1759.27 0 1789.27 0 1256.75 800"/><polygon class="cls-2" points="1452.43 800 1360.1 800 1892.62 0 1984.96 0 1452.43 800"/></svg>